<?xml version="1.0" encoding="UTF-8"?>
<!DOCTYPE svg PUBLIC "-//W3C//DTD SVG 1.1//EN" "http://www.w3.org/Graphics/SVG/1.1/DTD/svg11.dtd">
<!-- Creator: CorelDRAW X5 -->
<svg xmlns="http://www.w3.org/2000/svg" xml:space="preserve" width="140mm" height="31.25mm" style="shape-rendering:geometricPrecision; text-rendering:geometricPrecision; image-rendering:optimizeQuality; fill-rule:evenodd; clip-rule:evenodd"
viewBox="0 0 14000 3125"
 xmlns:xlink="http://www.w3.org/1999/xlink">
 <defs>
  <style type="text/css">
   <![CDATA[
    .fil2 {fill:#272727;fill-rule:nonzero}
    .fil0 {fill:red;fill-rule:nonzero}
    .fil1 {fill:white;fill-rule:nonzero}
   ]]>
  </style>
 </defs>
 <g id="__x0023_Layer_x0020_1">
  <metadata id="CorelCorpID_0Corel-Layer"/>
  <path class="fil0" d="M4370 490c-51,-192 -203,-343 -395,-395 -348,-93 -1744,-93 -1744,-93 0,0 -1396,0 -1744,93 -192,51 -343,203 -395,395 -93,348 -93,1075 -93,1075 0,0 0,726 93,1075 51,192 203,343 395,395 348,93 1744,93 1744,93 0,0 1396,0 1744,-93 192,-51 343,-203 395,-395 93,-348 93,-1075 93,-1075 0,0 0,-726 -93,-1075z"/>
  <polygon class="fil1" points="1784,2234 2944,1564 1784,895 "/>
  <path class="fil2" d="M6479 2845c-88,-60 -151,-152 -188,-278 -37,-126 -56,-293 -56,-501l0 -284c0,-211 21,-380 64,-508 43,-128 109,-221 200,-279 90,-59 209,-88 356,-88 145,0 261,30 348,89 87,60 151,153 192,279 40,127 61,295 61,506l0 284c0,209 -20,376 -59,503 -39,127 -103,219 -192,278 -88,59 -208,88 -359,88 -155,0 -277,-30 -366,-89zm495 -307l0 0c24,-64 37,-168 37,-313l0 -610c0,-140 -12,-243 -37,-308 -25,-65 -68,-97 -129,-97 -60,0 -102,32 -126,97 -25,65 -37,168 -37,308l0 610c0,145 12,249 35,313 23,64 66,96 128,96 62,0 105,-32 129,-96z"/>
  <path class="fil2" d="M13261 2071l0 99c0,126 4,220 11,283 7,63 23,109 46,137 23,29 60,43 109,43 66,0 111,-26 136,-77 24,-51 38,-136 40,-255l380 22c2,17 3,40 3,70 0,181 -50,316 -148,406 -99,89 -239,134 -420,134 -217,0 -369,-68 -457,-204 -87,-136 -131,-347 -131,-632l0 -342c0,-294 45,-508 136,-643 90,-135 245,-203 465,-203 151,0 267,28 348,83 81,55 138,142 171,259 33,117 50,279 50,485l0 335 -738 0zm56 -824l0 0c-22,28 -37,73 -45,136 -8,63 -11,158 -11,286l0 141 322 0 0 -141c0,-126 -4,-221 -13,-286 -9,-65 -24,-111 -46,-137 -22,-27 -57,-40 -104,-40 -47,0 -81,14 -104,42z"/>
  <path class="fil2" d="M5406 2034l-501 -1810 437 0 176 821c45,202 78,375 99,517l13 0c15,-102 48,-273 99,-514l182 -824 437 0 -508 1810 0 869 -434 0 0 -869z"/>
  <path class="fil2" d="M8877 945l0 1957 -345 0 -38 -239 -10 0c-94,181 -234,271 -421,271 -130,0 -226,-43 -287,-128 -62,-85 -93,-218 -93,-399l0 -1462 441 0 0 1437c0,87 10,150 29,187 19,37 51,56 96,56 38,0 75,-12 110,-35 35,-23 61,-53 78,-89l0 -1555 441 0z"/>
  <path class="fil2" d="M11137 945l0 1957 -345 0 -38 -239 -10 0c-94,181 -234,271 -421,271 -130,0 -226,-43 -287,-128 -62,-85 -93,-218 -93,-399l0 -1462 441 0 0 1437c0,87 10,150 29,187 19,37 51,56 96,56 38,0 75,-12 110,-35 35,-23 61,-53 78,-89l0 -1555 441 0z"/>
  <polygon class="fil2" points="10074,578 9637,578 9637,2902 9206,2902 9206,578 8768,578 8768,224 10074,224 "/>
  <path class="fil2" d="M12595 1258c-27,-123 -70,-213 -129,-268 -60,-55 -142,-83 -246,-83 -81,0 -156,23 -227,69 -70,46 -125,106 -163,180l-3 0 0 -1031 -425 0 0 2778 364 0 45 -185 10 0c34,66 85,118 153,156 68,38 144,57 227,57 149,0 259,-69 329,-206 70,-137 105,-352 105,-643l0 -310c0,-219 -13,-391 -40,-514zm-404 798l0 0c0,143 -6,254 -18,335 -12,81 -31,138 -59,172 -28,34 -65,51 -112,51 -36,0 -70,-8 -101,-26 -31,-17 -56,-43 -75,-77l0 -1111c15,-53 40,-97 77,-131 36,-34 76,-51 118,-51 45,0 79,18 104,53 24,35 42,94 51,177 10,83 14,201 14,354l0 252z"/>
 </g>
</svg>
